<svg width="1251" height="1080" viewBox="0 0 1251 1080" fill="none" xmlns="http://www.w3.org/2000/svg">
<mask id="path-1-inside-1_3_5" fill="white">
<path d="M934.534 1.59994C918.8 4.79994 905.067 8.79994 897.467 12.1333C864.134 27.0666 839.6 55.9999 828.934 92.7999C826.267 101.867 825.867 106.4 825.867 124.667C825.867 142.8 826.4 147.6 828.934 156.533C843.2 206.133 881.867 239.733 932.934 246.8C939.6 247.733 945.2 249.067 945.2 249.6C945.2 251.467 937.067 254.4 916.134 260C905.467 262.933 896.267 265.733 895.734 266.267C895.2 266.933 893.867 274.8 892.667 284C891.334 293.067 890.134 300.933 889.734 301.2C889.334 301.6 888 301.2 886.8 300.267C869.067 287.467 848.8 290.133 838.8 306.667C834.667 313.467 834.4 314.667 834.8 323.6C835.2 332 835.867 334 839.734 339.467C842.667 343.733 843.734 346.4 843.067 347.6C841.2 350.4 291.467 852.133 289.334 853.067C286.8 854 270.267 836.667 270.8 833.6C271.067 832.4 285.334 818.4 302.534 802.533C319.734 786.667 333.867 773.067 333.867 772.267C333.867 770.533 307.734 741.333 306.134 741.333C305.6 741.333 299.867 743.6 293.6 746.267L282.134 751.2L276.4 744.667C273.2 740.933 270.534 737.2 270.534 736.267C270.534 735.2 273.067 729.733 276.134 724.133L281.734 713.733L252.534 681.867C236.4 664.4 221.067 647.6 218.4 644.8L213.6 639.6L187.067 664C172.534 677.333 159.734 689.067 158.667 690C157.2 691.467 161.067 696.267 181.067 718C195.6 733.867 205.2 745.333 204.934 746.533C204.4 749.733 181.2 770.8 178.8 770.4C177.6 770.133 166.134 758.533 153.334 744.667C140.4 730.667 129.2 719.333 128.4 719.333C127.6 719.333 117.2 728.267 105.334 739.067L83.8669 758.933L88.1336 763.867C90.5336 766.667 101.334 778.533 112.267 790.4C123.067 802.133 131.867 812.667 131.867 813.733C131.867 815.733 107.467 838.667 105.334 838.667C104.8 838.667 93.3336 826.667 79.8669 812L55.6003 785.333L50.4003 789.733C35.2003 802.667 0.000276238 835.6 0.000276238 837.067C-0.133057 838.667 61.7336 907.2 65.6003 909.867C66.8003 910.533 71.2003 909.333 78.2669 906.267C84.2669 903.6 90.0003 901.733 90.9336 902.133C93.3336 902.933 102.534 914.133 102.534 916C102.534 916.933 100 922.267 96.9336 928L91.3336 938.4L103.467 951.467C110.134 958.8 116.667 965.733 118.134 966.933C120.667 969.2 121.467 968.667 142 949.867C153.6 939.067 168.534 925.467 175.067 919.6L186.934 908.933L196.134 918.4C201.067 923.733 205.2 928.533 205.2 929.2C205.2 930 191.067 943.467 173.734 959.467L142.267 988.267L146.4 992.533C150.8 997.067 151.6 1000.53 148.934 1002.27C148 1002.8 142.134 1003.33 135.867 1003.33C126.4 1003.47 123.467 1004.13 117.734 1007.07C104.4 1013.87 97.3336 1025.6 97.2003 1040.67C97.2003 1052.53 101.067 1061.33 109.734 1068.93C115.734 1074.27 128.934 1080 134.934 1080C140.4 1080 153.467 1074.13 159.334 1068.93C167.6 1061.6 170.8 1054.8 171.6 1042.67C172.534 1028.13 176.534 1024.4 183.067 1032.13C184.934 1034.4 187.334 1036 188.4 1035.73C189.334 1035.47 212.267 1014.93 239.334 990C365.867 873.333 883.6 396.533 885.467 394.933C887.334 393.467 888.267 393.867 892.267 397.333C898.534 402.8 905.2 405.333 913.2 405.333C937.067 405.333 951.334 379.867 939.067 359.067C934.667 351.467 935.6 350.8 949.867 350.533C955.734 350.533 963.2 350 966.534 349.6L972.4 348.667L978.8 331.333C986.667 309.733 990.667 301.2 992.4 301.733C993.2 302 994.267 308.133 994.667 316.133C995.867 335.333 999.2 348 1007.6 365.067C1014 378 1019.33 385.067 1031.87 397.333C1054.67 419.733 1084.4 431.867 1116.8 432C1151.07 432 1179.33 420.4 1203.87 396C1228.8 371.333 1240.13 344 1240.13 308.667C1240.27 274.933 1227.33 244.4 1202.93 220.533C1197.6 215.2 1193.2 210.667 1193.2 210.267C1193.2 209.867 1196.4 207.6 1200.13 205.2C1216.53 195.2 1234.27 174 1241.6 155.733C1245.6 145.467 1249.2 130.4 1250.13 119.067C1251.2 107.2 1245.33 83.1999 1237.87 68.2666C1212.8 18.3999 1155.73 -3.20006 1103.07 17.1999C1086.27 23.7333 1067.87 38.2666 1056.13 53.9999L1053.2 57.9999L1049.73 53.9999C1030.67 31.7333 1023.07 25.0666 1006.27 16.1333C994 9.46661 982.934 5.73328 965.867 2.53328C951.6 -0.13339 944 -0.400056 934.534 1.59994ZM971.867 47.8666C995.6 55.3333 1016.27 75.1999 1023.87 97.8666C1025.33 102.4 1027.2 111.2 1027.87 117.333C1028.53 123.333 1029.33 128.533 1029.47 128.8C1029.73 128.933 1041.73 128.8 1056.27 128.4L1082.67 127.6L1081.87 121.467C1079.73 105.733 1087.73 84.1333 1100.13 72.5333C1114.4 59.0666 1128.53 53.8666 1147.6 55.0666C1179.07 56.9333 1203.87 83.4666 1203.87 115.2C1203.87 141.733 1188 164.4 1162.67 173.733C1156.8 175.867 1152.13 176.4 1140.27 176.4C1126.67 176.4 1125.2 176.533 1125.2 178.8C1125.2 180.133 1124 191.467 1122.53 204.133C1121.07 216.8 1120.13 227.333 1120.4 227.733C1120.8 228 1125.73 229.067 1131.47 230.133C1155.6 234.267 1177.87 250.933 1188.93 272.933C1195.87 287.067 1197.6 295.733 1196.93 313.2C1196 334.667 1189.33 350.267 1174.4 365.333C1159.73 380.133 1142.4 387.867 1121.2 389.067C1105.87 389.733 1095.87 387.6 1080.4 380C1066.93 373.467 1052.13 358.667 1045.6 345.333C1032.53 318.533 1034.8 286.4 1051.33 263.067L1055.73 256.8L1049.6 249.6C1041.07 239.733 1042.27 238 1057.33 238C1071.47 237.867 1078.13 234.8 1083.2 226C1092 211.067 1084 185.467 1066.27 172.533C1059.6 167.6 1046.4 162.667 1040.13 162.667C1023.73 162.667 1011.47 177.333 1013.87 193.867C1014.67 198.4 1014.27 199.867 1011.87 202C1009.07 204.533 1009.07 204.4 1002.13 197.6L995.067 190.667L984.534 196C952.534 212.267 917.2 206.667 891.734 181.333C875.867 165.467 867.867 146.533 867.867 124.667C867.867 87.3333 894.4 54.2666 930.8 45.9999C941.867 43.4666 960.534 44.2666 971.867 47.8666Z"/>
</mask>
<path d="M934.534 1.59994C918.8 4.79994 905.067 8.79994 897.467 12.1333C864.134 27.0666 839.6 55.9999 828.934 92.7999C826.267 101.867 825.867 106.4 825.867 124.667C825.867 142.8 826.4 147.6 828.934 156.533C843.2 206.133 881.867 239.733 932.934 246.8C939.6 247.733 945.2 249.067 945.2 249.6C945.2 251.467 937.067 254.4 916.134 260C905.467 262.933 896.267 265.733 895.734 266.267C895.2 266.933 893.867 274.8 892.667 284C891.334 293.067 890.134 300.933 889.734 301.2C889.334 301.6 888 301.2 886.8 300.267C869.067 287.467 848.8 290.133 838.8 306.667C834.667 313.467 834.4 314.667 834.8 323.6C835.2 332 835.867 334 839.734 339.467C842.667 343.733 843.734 346.4 843.067 347.6C841.2 350.4 291.467 852.133 289.334 853.067C286.8 854 270.267 836.667 270.8 833.6C271.067 832.4 285.334 818.4 302.534 802.533C319.734 786.667 333.867 773.067 333.867 772.267C333.867 770.533 307.734 741.333 306.134 741.333C305.6 741.333 299.867 743.6 293.6 746.267L282.134 751.2L276.4 744.667C273.2 740.933 270.534 737.2 270.534 736.267C270.534 735.2 273.067 729.733 276.134 724.133L281.734 713.733L252.534 681.867C236.4 664.4 221.067 647.6 218.4 644.8L213.6 639.6L187.067 664C172.534 677.333 159.734 689.067 158.667 690C157.2 691.467 161.067 696.267 181.067 718C195.6 733.867 205.2 745.333 204.934 746.533C204.4 749.733 181.2 770.8 178.8 770.4C177.6 770.133 166.134 758.533 153.334 744.667C140.4 730.667 129.2 719.333 128.4 719.333C127.6 719.333 117.2 728.267 105.334 739.067L83.8669 758.933L88.1336 763.867C90.5336 766.667 101.334 778.533 112.267 790.4C123.067 802.133 131.867 812.667 131.867 813.733C131.867 815.733 107.467 838.667 105.334 838.667C104.8 838.667 93.3336 826.667 79.8669 812L55.6003 785.333L50.4003 789.733C35.2003 802.667 0.000276238 835.6 0.000276238 837.067C-0.133057 838.667 61.7336 907.2 65.6003 909.867C66.8003 910.533 71.2003 909.333 78.2669 906.267C84.2669 903.6 90.0003 901.733 90.9336 902.133C93.3336 902.933 102.534 914.133 102.534 916C102.534 916.933 100 922.267 96.9336 928L91.3336 938.4L103.467 951.467C110.134 958.8 116.667 965.733 118.134 966.933C120.667 969.2 121.467 968.667 142 949.867C153.6 939.067 168.534 925.467 175.067 919.6L186.934 908.933L196.134 918.4C201.067 923.733 205.2 928.533 205.2 929.2C205.2 930 191.067 943.467 173.734 959.467L142.267 988.267L146.4 992.533C150.8 997.067 151.6 1000.53 148.934 1002.27C148 1002.8 142.134 1003.33 135.867 1003.33C126.4 1003.47 123.467 1004.13 117.734 1007.07C104.4 1013.87 97.3336 1025.6 97.2003 1040.67C97.2003 1052.53 101.067 1061.33 109.734 1068.93C115.734 1074.27 128.934 1080 134.934 1080C140.4 1080 153.467 1074.13 159.334 1068.93C167.6 1061.6 170.8 1054.8 171.6 1042.67C172.534 1028.13 176.534 1024.4 183.067 1032.13C184.934 1034.4 187.334 1036 188.4 1035.73C189.334 1035.47 212.267 1014.93 239.334 990C365.867 873.333 883.6 396.533 885.467 394.933C887.334 393.467 888.267 393.867 892.267 397.333C898.534 402.8 905.2 405.333 913.2 405.333C937.067 405.333 951.334 379.867 939.067 359.067C934.667 351.467 935.6 350.8 949.867 350.533C955.734 350.533 963.2 350 966.534 349.6L972.4 348.667L978.8 331.333C986.667 309.733 990.667 301.2 992.4 301.733C993.2 302 994.267 308.133 994.667 316.133C995.867 335.333 999.2 348 1007.6 365.067C1014 378 1019.33 385.067 1031.87 397.333C1054.67 419.733 1084.4 431.867 1116.8 432C1151.07 432 1179.33 420.4 1203.87 396C1228.8 371.333 1240.13 344 1240.13 308.667C1240.27 274.933 1227.33 244.4 1202.93 220.533C1197.6 215.2 1193.2 210.667 1193.2 210.267C1193.2 209.867 1196.4 207.6 1200.13 205.2C1216.53 195.2 1234.27 174 1241.6 155.733C1245.6 145.467 1249.2 130.4 1250.13 119.067C1251.2 107.2 1245.33 83.1999 1237.87 68.2666C1212.8 18.3999 1155.73 -3.20006 1103.07 17.1999C1086.27 23.7333 1067.87 38.2666 1056.13 53.9999L1053.2 57.9999L1049.73 53.9999C1030.67 31.7333 1023.07 25.0666 1006.27 16.1333C994 9.46661 982.934 5.73328 965.867 2.53328C951.6 -0.13339 944 -0.400056 934.534 1.59994ZM971.867 47.8666C995.6 55.3333 1016.27 75.1999 1023.87 97.8666C1025.33 102.4 1027.2 111.2 1027.87 117.333C1028.53 123.333 1029.33 128.533 1029.47 128.8C1029.73 128.933 1041.73 128.8 1056.27 128.4L1082.67 127.6L1081.87 121.467C1079.73 105.733 1087.73 84.1333 1100.13 72.5333C1114.4 59.0666 1128.53 53.8666 1147.6 55.0666C1179.07 56.9333 1203.87 83.4666 1203.87 115.2C1203.87 141.733 1188 164.4 1162.67 173.733C1156.8 175.867 1152.13 176.4 1140.27 176.4C1126.67 176.4 1125.2 176.533 1125.2 178.8C1125.2 180.133 1124 191.467 1122.53 204.133C1121.07 216.8 1120.13 227.333 1120.4 227.733C1120.8 228 1125.73 229.067 1131.47 230.133C1155.6 234.267 1177.87 250.933 1188.93 272.933C1195.87 287.067 1197.6 295.733 1196.93 313.2C1196 334.667 1189.33 350.267 1174.4 365.333C1159.73 380.133 1142.4 387.867 1121.2 389.067C1105.87 389.733 1095.87 387.6 1080.4 380C1066.93 373.467 1052.13 358.667 1045.6 345.333C1032.53 318.533 1034.8 286.4 1051.33 263.067L1055.73 256.8L1049.6 249.6C1041.07 239.733 1042.27 238 1057.33 238C1071.47 237.867 1078.13 234.8 1083.2 226C1092 211.067 1084 185.467 1066.27 172.533C1059.6 167.6 1046.4 162.667 1040.13 162.667C1023.73 162.667 1011.47 177.333 1013.87 193.867C1014.67 198.4 1014.27 199.867 1011.87 202C1009.07 204.533 1009.07 204.4 1002.13 197.6L995.067 190.667L984.534 196C952.534 212.267 917.2 206.667 891.734 181.333C875.867 165.467 867.867 146.533 867.867 124.667C867.867 87.3333 894.4 54.2666 930.8 45.9999C941.867 43.4666 960.534 44.2666 971.867 47.8666Z" fill="currentColor" stroke="black" stroke-width="2" mask="url(#path-1-inside-1_3_5)"/>
</svg>
